<?xml version="1.0" encoding="UTF-8" standalone="no"?>
<!-- Created with Inkscape (http://www.inkscape.org/) -->

<svg
   xmlns:dc="http://purl.org/dc/elements/1.1/"
   xmlns:cc="http://creativecommons.org/ns#"
   xmlns:rdf="http://www.w3.org/1999/02/22-rdf-syntax-ns#"
   xmlns:svg="http://www.w3.org/2000/svg"
   xmlns="http://www.w3.org/2000/svg"
   xmlns:sodipodi="http://sodipodi.sourceforge.net/DTD/sodipodi-0.dtd"
   xmlns:inkscape="http://www.inkscape.org/namespaces/inkscape"
   width="744.09448819"
   height="1052.3622047"
   id="svg2"
   version="1.1"
   inkscape:version="0.47 r22583"
   sodipodi:docname="dexmart.svg">
  <defs
     id="defs4">
    <inkscape:perspective
       sodipodi:type="inkscape:persp3d"
       inkscape:vp_x="0 : 526.18109 : 1"
       inkscape:vp_y="0 : 1000 : 0"
       inkscape:vp_z="744.09448 : 526.18109 : 1"
       inkscape:persp3d-origin="372.04724 : 350.78739 : 1"
       id="perspective10" />
    <inkscape:perspective
       id="perspective2824"
       inkscape:persp3d-origin="0.5 : 0.33333333 : 1"
       inkscape:vp_z="1 : 0.5 : 1"
       inkscape:vp_y="0 : 1000 : 0"
       inkscape:vp_x="0 : 0.5 : 1"
       sodipodi:type="inkscape:persp3d" />
  </defs>
  <sodipodi:namedview
     id="base"
     pagecolor="#ffffff"
     bordercolor="#666666"
     borderopacity="1.0"
     inkscape:pageopacity="0.0"
     inkscape:pageshadow="2"
     inkscape:zoom="0.49497475"
     inkscape:cx="911.88264"
     inkscape:cy="492.16478"
     inkscape:document-units="px"
     inkscape:current-layer="layer1"
     showgrid="false"
     inkscape:window-width="1678"
     inkscape:window-height="969"
     inkscape:window-x="0"
     inkscape:window-y="26"
     inkscape:window-maximized="1" />
  <metadata
     id="metadata7">
    <rdf:RDF>
      <cc:Work
         rdf:about="">
        <dc:format>image/svg+xml</dc:format>
        <dc:type
           rdf:resource="http://purl.org/dc/dcmitype/StillImage" />
        <dc:title></dc:title>
      </cc:Work>
    </rdf:RDF>
  </metadata>
  <g
     inkscape:label="Layer 1"
     inkscape:groupmode="layer"
     id="layer1">
    <path
       style="fill:none;stroke:#000000;stroke-width:1.51908898px;stroke-linecap:butt;stroke-linejoin:miter;stroke-opacity:1"
       d="M 9.5363023,492.87928 C 8.9896593,437.51008 7.8341391,353.24602 7.5497427,323.55739 C 7.2653463,293.86876 68.271893,324.57659 89.069042,350.62203 C 109.86619,376.66747 107.44946,441.63843 87.46381,468.08633 C 67.478161,494.53422 20.262275,496.03019 9.8999323,493.38959 C 38.03902,492.27314 79.708852,494.33245 105.02258,487.94537 C 130.33631,481.55829 159.18968,471.7022 171.66777,441.2209 C 184.14587,410.7396 129.7025,412.7148 130.36556,441.97834 C 131.02863,471.24187 153.73929,501.91062 175.40145,489.43537 C 197.06362,476.96013 192.73364,454.94266 201.76772,428.83031 C 210.8018,402.71797 248.39263,424.08629 247.24806,454.35529 C 246.1035,484.62428 213.5118,498.90118 205.92669,493.16251 C 235.9391,498.46119 246.73942,466.32221 247.0891,450.84866 C 247.43879,435.37511 275.03134,408.88027 293.91614,416.37594 C 283.5948,408.96055 243.28678,428.64166 247.57515,453.52387 C 251.86353,478.40608 272.36197,492.80172 295.21408,492.57665 C 318.06619,492.35157 302.60299,418.72226 328.45973,416.5823 C 354.31648,414.44234 349.48903,471.99151 351.0411,494.31176 C 348.2979,471.52286 351.01988,415.43743 371.73096,416.30601 C 392.44205,417.1746 388.76847,468.17346 389.79929,493.29439 C 389.36994,468.10593 385.97115,417.54202 410.00944,416.87531 C 434.04774,416.20861 420.74006,488.08806 433.60787,493.0649 C 446.47568,498.04174 462.92801,494.62165 490.44424,494.05041 C 517.96047,493.47916 515.96572,464.48949 510.61744,440.41103 C 505.26915,416.33256 462.317,422.33893 457.4893,445.50081 C 452.6616,468.6627 453.18087,492.41773 487.43549,494.86596 C 521.69012,497.31418 513.49963,457.25189 515.58868,428.33461 C 516.62598,460.62278 506.83542,495.37715 535.46288,495.60441 C 564.09079,495.83167 553.57375,470.38402 553.0819,445.25332 C 547.61531,414.34113 611.50685,415.77438 613.96622,434.55014 C 616.42559,453.3259 607.13904,487.88061 626.12597,492.86301 C 645.11291,497.84542 658.09478,495.66159 666.84371,480.54692 C 675.59264,465.43225 671.64359,459.3461 673.6455,432.89546 C 675.6474,406.44481 672.73037,358.8158 672.54911,321.77951 C 672.24106,335.83953 669.06819,364.64172 680.13371,368.14519 C 691.19922,371.64867 718.87268,369.05959 736.47431,368.73861 C 754.07595,368.41763 713.52942,368.96413 693.71753,369.23464 C 673.90564,369.50515 672.31665,370.98284 674.00835,387.12065 C 675.70005,403.25846 670.01374,452.11269 675.40795,477.57662 C 680.80216,503.04055 690.54362,493.92505 710.96653,495.0024 C 731.38944,496.07975 744.55826,474.75327 743.50243,472.70838"
       id="path2832"
       sodipodi:nodetypes="czzzczzzzzzccczzzczczzzzzzczczzzzczzzzzzz" />
  </g>
</svg>
