<?xml version="1.0" encoding="UTF-8" standalone="no"?>
<!-- Created with Inkscape (http://www.inkscape.org/) -->

<svg
   xmlns:dc="http://purl.org/dc/elements/1.1/"
   xmlns:cc="http://creativecommons.org/ns#"
   xmlns:rdf="http://www.w3.org/1999/02/22-rdf-syntax-ns#"
   xmlns:svg="http://www.w3.org/2000/svg"
   xmlns="http://www.w3.org/2000/svg"
   xmlns:sodipodi="http://sodipodi.sourceforge.net/DTD/sodipodi-0.dtd"
   xmlns:inkscape="http://www.inkscape.org/namespaces/inkscape"
   width="744.09448819"
   height="1052.3622047"
   id="svg2"
   version="1.1"
   inkscape:version="0.47 r22583"
   sodipodi:docname="drawing.svg">
  <defs
     id="defs4">
    <inkscape:perspective
       sodipodi:type="inkscape:persp3d"
       inkscape:vp_x="0 : 526.18109 : 1"
       inkscape:vp_y="0 : 1000 : 0"
       inkscape:vp_z="744.09448 : 526.18109 : 1"
       inkscape:persp3d-origin="372.04724 : 350.78739 : 1"
       id="perspective10" />
    <inkscape:perspective
       id="perspective2884"
       inkscape:persp3d-origin="0.5 : 0.33333333 : 1"
       inkscape:vp_z="1 : 0.5 : 1"
       inkscape:vp_y="0 : 1000 : 0"
       inkscape:vp_x="0 : 0.5 : 1"
       sodipodi:type="inkscape:persp3d" />
    <inkscape:perspective
       id="perspective3774"
       inkscape:persp3d-origin="0.5 : 0.33333333 : 1"
       inkscape:vp_z="1 : 0.5 : 1"
       inkscape:vp_y="0 : 1000 : 0"
       inkscape:vp_x="0 : 0.5 : 1"
       sodipodi:type="inkscape:persp3d" />
  </defs>
  <sodipodi:namedview
     id="base"
     pagecolor="#ffffff"
     bordercolor="#666666"
     borderopacity="1.0"
     inkscape:pageopacity="0.0"
     inkscape:pageshadow="2"
     inkscape:zoom="0.175"
     inkscape:cx="-379.09521"
     inkscape:cy="170.66788"
     inkscape:document-units="px"
     inkscape:current-layer="layer1"
     showgrid="false"
     inkscape:window-width="1678"
     inkscape:window-height="969"
     inkscape:window-x="0"
     inkscape:window-y="26"
     inkscape:window-maximized="1" />
  <metadata
     id="metadata7">
    <rdf:RDF>
      <cc:Work
         rdf:about="">
        <dc:format>image/svg+xml</dc:format>
        <dc:type
           rdf:resource="http://purl.org/dc/dcmitype/StillImage" />
        <dc:title></dc:title>
      </cc:Work>
    </rdf:RDF>
  </metadata>
  <g
     inkscape:label="Layer 1"
     inkscape:groupmode="layer"
     id="layer1">
    <path
       id="path3788"
       d="M 387.62164,525.77674 C 385.27953,524.90267 383.62199,522.30655 383.6179,519.50588 C 383.61585,518.0985 382.67561,515.40747 381.52848,513.5258 C 378.90827,509.22779 379.13567,507.83499 385.45983,489.44701 C 391.72702,471.22465 395.47946,455.03049 393.98401,452.65971 C 393.30349,451.58086 390.43874,450.55758 386.02136,449.81547 C 382.22651,449.17795 372.94928,446.96657 365.40529,444.9013 C 349.65626,440.58979 350.52715,440.37886 345.21215,449.79221 C 343.30082,453.17735 339.91105,458.13351 337.67932,460.80589 C 330.67139,469.19756 331.4985,471.38626 347.77964,487.5334 C 357.91255,497.58292 359.31745,500.74097 357.05074,508.37379 C 354.84124,515.814 353.32947,516.47728 349.01287,511.90036 C 345.78059,508.47314 345.48504,507.7027 346.04921,504.17459 C 346.64749,500.43318 346.35229,499.87142 339.53188,491.77206 C 335.60268,487.10607 329.17798,480.90711 325.25476,477.9966 C 313.00507,468.90895 312.18484,467.10171 316.57562,458.87358 C 320.83822,450.88566 320.65244,441.4401 316.32677,446.22059 C 315.46758,447.17012 313.8299,450.12773 312.68749,452.79306 C 311.36272,455.88382 307.3806,460.98357 301.69349,466.87261 C 291.82288,477.09371 290.79379,479.30586 288.57157,495.07981 C 287.21698,504.69513 287.6368,505.85695 294.78976,512.28807 C 298.77023,515.86685 299.62164,517.23275 299.62164,520.03968 C 299.62164,523.33884 299.49672,523.44701 295.68674,523.44701 C 289.65959,523.44701 286.66801,521.92886 285.98718,518.52473 C 285.6621,516.89933 283.37366,513.45869 280.90176,510.87887 C 276.85133,506.65161 276.46261,505.83066 276.96635,502.56765 C 277.27377,500.5763 277.83718,492.76434 278.21836,485.20774 C 278.90475,471.60052 278.94236,471.43232 282.13082,467.70732 C 286.4822,462.6237 289.62164,456.55949 289.62164,453.23785 C 289.62164,451.73152 288.18622,446.99986 286.43183,442.72304 C 283.60135,435.82299 283.23523,433.8205 283.18183,424.94701 C 283.12523,415.54406 282.99513,414.92896 281.00273,414.64464 C 279.51843,414.43282 277.63602,415.75984 274.71754,419.07541 C 266.03632,428.93779 261.94693,442.3344 260.89524,464.35652 C 260.41776,474.35487 259.95901,477.10964 258.53421,478.53444 C 256.04788,481.02077 248.22507,481.9718 241.56872,480.59695 C 238.50661,479.96448 235.01584,479.44701 233.81144,479.44701 C 231.11362,479.44701 231.05909,477.94826 233.52893,471.68222 C 234.57794,469.02087 237.5526,460.79171 240.13929,453.3952 C 246.00218,436.63058 248.0313,432.66401 255.09957,424.15052 C 261.40072,416.56102 269.8145,409.94159 278.40175,405.81787 C 281.54769,404.30715 287.04664,401.19312 290.62164,398.89781 C 299.73589,393.04607 304.67554,390.66802 311.30124,388.94225 C 319.35177,386.84535 325.6553,387.06246 343.53843,390.05256 C 361.41609,393.04175 370.82563,392.90529 379.62164,389.52926 C 391.00118,385.16164 396.16262,379.63271 409.6214,357.39359 C 419.04593,341.82062 424.88313,335.99218 441.37164,325.69102 C 449.32734,320.72072 449.62164,320.62275 449.62164,322.94488 C 449.62164,327.23597 451.68972,330.06569 457.31941,333.47765 C 460.35556,335.31774 463.35312,337.6675 463.98066,338.69934 C 464.6082,339.73117 468.97086,343.45103 473.67546,346.96568 C 485.065,355.47445 486.03691,356.62065 485.24019,360.60425 C 484.19714,365.81949 482.02355,367.44701 476.10151,367.44701 C 472.29129,367.44701 470.16007,366.87178 468.1697,365.30616 C 465.6951,363.35963 464.67623,363.22463 456.94534,363.81887 C 452.26886,364.17833 447.66901,364.88647 446.72346,365.39252 C 445.37181,366.1159 444.74626,368.78784 443.79739,377.89072 C 443.10035,384.57776 441.50659,392.73816 440.02466,397.20793 C 438.08369,403.06228 437.24434,408.35648 436.57814,418.94701 C 436.09376,426.64701 435.4107,434.59568 435.06022,436.61072 L 434.42298,440.27442 L 446.28343,448.22042 C 452.80668,452.59073 458.7682,456.91868 459.53126,457.83811 C 460.29432,458.75754 462.40695,465.23317 464.22601,472.2284 C 466.04506,479.22364 468.66756,487.64701 470.05378,490.94701 C 473.90696,500.11982 473.26161,510.45486 468.83646,510.44204 C 467.89331,510.43931 465.77164,509.35557 464.12164,508.03373 C 461.34726,505.81112 461.11151,505.11583 460.98701,498.78869 C 460.82537,490.57486 456.43377,477.18435 451.03067,468.43063 C 448.15724,463.77531 446.49578,462.20897 442.69841,460.57538 C 437.15745,458.19172 421.17328,453.44701 418.68409,453.44701 C 416.38558,453.44701 413.37288,456.88181 410.35154,462.94701 C 406.34293,470.9941 389.62164,508.19364 389.62164,509.06443 C 389.62164,509.50206 391.45254,512.47024 393.6903,515.66039 C 398.9168,523.11128 398.7673,525.86688 393.12164,526.14177 C 390.92164,526.24889 388.44664,526.08462 387.62164,525.77674 z"
       style="fill:#506d58" />
  </g>
</svg>
